<svg width="56" height="56" viewBox="0 0 56 56" fill="none" xmlns="http://www.w3.org/2000/svg">
<rect width="56" height="56" rx="8" fill="#171717" fill-opacity="0.1"/>
<path fill-rule="evenodd" clip-rule="evenodd" d="M15.457 27.9999C15.457 21.0733 21.0721 15.4583 27.9987 15.4583C34.9253 15.4583 40.5404 21.0733 40.5404 27.9999C40.5404 34.9265 34.9253 40.5416 27.9987 40.5416C21.0721 40.5416 15.457 34.9265 15.457 27.9999ZM27.9987 17.2083C22.0386 17.2083 17.207 22.0398 17.207 27.9999C17.207 33.96 22.0386 38.7916 27.9987 38.7916C33.9588 38.7916 38.7904 33.96 38.7904 27.9999C38.7904 22.0398 33.9588 17.2083 27.9987 17.2083ZM24.7045 25.3749L25.6442 24.5871C26.0145 24.2767 26.063 23.7248 25.7526 23.3544C25.4421 22.9841 24.8902 22.9356 24.5199 23.2461L22.4697 24.9649C22.0764 25.2946 21.8777 25.7646 21.8738 26.2359C21.8737 26.2406 21.8737 26.2453 21.8737 26.2499C21.8737 26.2544 21.8737 26.2588 21.8738 26.2632C21.8774 26.735 22.076 27.2055 22.4697 27.5355L24.52 29.2539C24.8903 29.5643 25.4422 29.5157 25.7526 29.1453C26.0631 28.775 26.0145 28.2231 25.6441 27.9127L24.7042 27.1249H30.0404C31.1679 27.1249 32.082 28.039 32.082 29.1666C32.082 30.2942 31.1679 31.2083 30.0404 31.2083H27.707C27.2238 31.2083 26.832 31.6 26.832 32.0833C26.832 32.5665 27.2238 32.9583 27.707 32.9583H30.0404C32.1344 32.9583 33.832 31.2607 33.832 29.1666C33.832 27.0725 32.1344 25.3749 30.0404 25.3749H24.7045Z" fill="#14151B"/>
</svg>
